<svg width="253" height="72" viewBox="0 0 253 72" fill="none" xmlns="http://www.w3.org/2000/svg">
<path d="M143.758 16.5261H146.24V24.0195H155.618V16.5261H158.101V34.7309H155.618V26.2261H146.24V34.7309H143.758V16.5261Z" fill="#0668B2"/>
<path d="M163.803 16.5261H176.997V18.7328H166.193V24.2953H176.169V26.3641H166.193V32.5702H177.18V34.7309H163.803V16.5261Z" fill="#0668B2"/>
<path d="M187.293 16.5261H190.051L196.671 34.7309H193.959L192.074 29.2603H184.949L182.972 34.7309H180.443L187.293 16.5261ZM191.385 27.2835L188.58 19.2384L185.684 27.2835H191.385Z" fill="#0668B2"/>
<path d="M200.441 16.5261H202.924V32.5702H212.026V34.7309H200.441V16.5261Z" fill="#0668B2"/>
<path d="M227.429 16.5261V18.6868H221.315V34.7309H218.832V18.6868H212.672V16.5261H227.429Z" fill="#0668B2"/>
<path d="M231.289 16.5261H233.772V24.0195H243.15V16.5261H245.632V34.7309H243.15V26.2261H233.772V34.7309H231.289V16.5261Z" fill="#0668B2"/>
<path d="M145.367 43.5115H143.758V55.2342H145.367V43.5115Z" fill="#3B68AB"/>
<path d="M148.953 43.5115H150.838L156.676 53.0276V43.5115H158.193V55.2802H156.401L150.47 45.7641V55.2802H148.953V43.5115Z" fill="#0668B2"/>
<path d="M162.792 51.4647C162.792 52.1083 162.975 52.6599 163.251 53.0737C163.757 53.8552 164.676 54.223 165.918 54.223C167.159 54.223 167.021 54.131 167.481 53.9931C168.4 53.6713 168.86 53.0737 168.86 52.2002C168.86 51.3267 168.676 51.0969 168.262 50.8211C167.848 50.5452 167.251 50.3154 166.423 50.1315L164.906 49.7637C163.895 49.5339 163.205 49.258 162.792 48.9822C162.056 48.4765 161.688 47.741 161.688 46.7756C161.688 45.8102 162.056 44.8447 162.746 44.1552C163.481 43.4656 164.447 43.1438 165.78 43.1438C167.113 43.1438 167.986 43.4196 168.814 44.0173C169.641 44.6149 170.055 45.5343 170.055 46.8675H168.538C168.446 46.2239 168.308 45.7642 168.032 45.4424C167.573 44.8447 166.791 44.5229 165.642 44.5229C164.493 44.5229 164.079 44.7068 163.711 45.1206C163.297 45.4884 163.113 45.994 163.113 46.4997C163.113 47.0054 163.343 47.5111 163.803 47.7869C164.125 47.9708 164.814 48.1547 165.872 48.4305L167.481 48.7983C168.262 48.9822 168.86 49.2121 169.274 49.5339C170.009 50.0855 170.377 50.867 170.377 51.9244C170.377 52.9817 169.917 54.177 168.998 54.7287C168.078 55.2803 167.021 55.5561 165.78 55.5561C164.538 55.5561 163.251 55.1884 162.424 54.4528C161.596 53.7173 161.229 52.7059 161.229 51.4187H162.746L162.792 51.4647Z" fill="#0668B2"/>
<path d="M175.387 43.5115V50.775C175.387 51.6485 175.571 52.338 175.893 52.8897C176.353 53.7632 177.18 54.1769 178.329 54.1769C179.479 54.1769 180.628 53.7172 181.088 52.7977C181.364 52.2921 181.501 51.6025 181.501 50.775V43.5115H183.11V50.0854C183.11 51.5105 182.927 52.6598 182.513 53.4413C181.777 54.8665 180.444 55.556 178.467 55.556C176.491 55.556 175.111 54.8665 174.422 53.4413C174.008 52.6598 173.824 51.5565 173.824 50.0854V43.5115H175.433H175.387Z" fill="#0668B2"/>
<path d="M186.651 43.5115H191.983C192.857 43.5115 193.592 43.6495 194.144 43.8793C195.247 44.385 195.753 45.3044 195.753 46.6376C195.753 47.9708 195.615 47.9248 195.293 48.3845C195.017 48.8443 194.604 49.212 194.052 49.4419C194.512 49.6258 194.833 49.8556 195.109 50.1774C195.339 50.4992 195.477 50.959 195.477 51.6485V53.2116C195.569 53.6713 195.569 53.9931 195.661 54.2229C195.753 54.5907 195.937 54.8206 196.167 54.9585V55.2343H194.236C194.19 55.1424 194.144 55.0045 194.098 54.8206C194.098 54.6367 194.052 54.3609 194.006 53.9011L193.914 51.9244C193.914 51.1428 193.592 50.6372 193.087 50.3613C192.811 50.2234 192.305 50.1315 191.707 50.1315H188.168V55.1883H186.559V43.4656L186.651 43.5115ZM191.845 48.8902C192.581 48.8902 193.133 48.7523 193.546 48.4305C193.96 48.1087 194.19 47.603 194.19 46.8215C194.19 46.04 193.914 45.3964 193.316 45.1206C192.995 44.9367 192.581 44.8907 192.029 44.8907H188.26V48.8902H191.845Z" fill="#0668B2"/>
<path d="M202.74 43.5115H204.533L208.809 55.2342H207.062L205.821 51.6944H201.223L199.936 55.2342H198.281L202.695 43.5115H202.74ZM205.361 50.4532L203.568 45.2584L201.683 50.4532H205.361Z" fill="#0668B2"/>
<path d="M211.199 43.5115H213.084L218.922 53.0276V43.5115H220.44V55.2802H218.647L212.716 45.7641V55.2802H211.199V43.5115Z" fill="#0668B2"/>
<path d="M232.346 44.3851C233.174 45.1666 233.587 46.04 233.679 47.0514H232.116C231.932 46.2699 231.611 45.6723 231.105 45.2585C230.599 44.7988 229.864 44.6149 228.944 44.6149C228.025 44.6149 226.875 45.0287 226.186 45.8561C225.496 46.6836 225.129 47.9249 225.129 49.5799C225.129 51.2348 225.45 52.0623 226.094 52.9358C226.738 53.8092 227.657 54.223 228.898 54.223C230.139 54.223 230.921 53.7633 231.519 52.8898C231.84 52.4301 232.07 51.7865 232.254 51.005H233.817C233.679 52.2462 233.22 53.3036 232.438 54.131C231.519 55.1424 230.277 55.6481 228.714 55.6481C227.151 55.6481 226.232 55.2344 225.312 54.4069C224.117 53.3036 223.52 51.6026 223.52 49.35C223.52 47.0974 223.979 46.2239 224.899 45.0746C225.864 43.8794 227.243 43.2817 228.944 43.2817C230.645 43.2817 231.565 43.6495 232.392 44.477" fill="#0668B2"/>
<path d="M236.988 43.5115H245.493V44.9366H238.505V48.5224H244.987V49.9015H238.505V53.8551H245.631V55.2802H236.988V43.5115Z" fill="#0668B2"/>
<path d="M138.702 0.711914H0.373047V71.7381H138.702V0.711914Z" fill="#FBDF00"/>
<path d="M38.9903 25.8583C38.3467 25.6284 37.6572 25.4446 36.8297 25.2147C36.0482 24.9848 35.1287 24.801 34.1633 24.6171C33.1519 24.4332 32.0486 24.3872 30.8993 24.3872C29.4742 24.3872 28.0031 24.6171 26.624 25.0308C25.1988 25.4446 23.9116 26.0882 22.6244 26.9156C21.3832 27.7891 20.2799 28.8465 19.3145 30.1337C18.3491 31.4209 17.6135 32.9379 17.0619 34.6849C16.5102 36.4318 16.2344 38.4086 16.2344 40.6152C16.2344 42.9597 16.5562 44.9825 17.1998 46.6835C17.8434 48.4304 18.6709 49.8555 19.7282 51.0508C20.7856 52.246 21.9349 53.2114 23.2221 53.901C24.5093 54.6365 25.7965 55.1422 27.1297 55.464C28.4628 55.7858 29.7041 55.9238 30.9453 55.9238C32.1865 55.9238 33.3818 55.8318 34.3932 55.6939C35.4505 55.51 36.4159 55.3261 37.2894 55.0963C38.1628 54.8664 38.8984 54.6365 39.588 54.4067V51.0048C38.9444 51.2806 38.2548 51.5564 37.4733 51.8782C36.6918 52.1541 35.7723 52.4299 34.7609 52.6138C33.7496 52.7977 32.6462 52.9356 31.405 52.9356C29.2903 52.9356 27.5434 52.5678 26.0263 51.8323C24.5552 51.1427 23.314 50.1773 22.3946 48.982C21.4751 47.7868 20.7856 46.4076 20.3258 44.9365C19.8661 43.4195 19.6822 41.9024 19.6822 40.2934C19.6822 38.6844 19.9121 37.1673 20.3718 35.6043C20.8315 34.0872 21.5211 32.7081 22.4405 31.5128C23.36 30.2716 24.5552 29.3062 25.9804 28.5706C27.4055 27.8351 29.1064 27.4673 31.0372 27.4213C32.1865 27.4213 33.2439 27.5133 34.1633 27.7431C35.0827 27.927 35.9562 28.2029 36.7837 28.5247C37.5652 28.8465 38.3467 29.1223 39.0363 29.4901V25.9043L38.9903 25.8583Z" fill="#0668B2"/>
<path d="M69.1918 50.0854C68.962 50.2693 68.6402 50.5452 68.2724 50.821C67.9046 51.1428 67.4909 51.4186 67.0312 51.7404C66.5714 52.0163 66.1577 52.2921 65.7439 52.5219C65.3302 52.7518 65.0544 52.8437 64.7785 52.8437C64.5947 52.8437 64.4108 52.7978 64.3648 52.7518C64.2729 52.6599 64.2269 52.6139 64.1809 52.5219C64.1809 52.43 64.1809 52.2461 64.1349 51.9243C64.1349 51.6025 64.1349 51.2347 64.1349 50.867V34.2712C64.1349 33.1219 64.1349 32.1105 64.043 31.329C63.9511 30.5015 63.8131 29.766 63.5373 29.1224C63.2615 28.4788 62.8477 27.8352 62.2501 27.1916C61.6525 26.548 60.9169 25.9963 60.0435 25.6285C59.17 25.2148 58.2506 24.939 57.3311 24.7551C56.3657 24.5712 55.4923 24.4792 54.6188 24.4792C53.4695 24.4792 52.4122 24.6172 51.4468 24.847C50.4814 25.0769 49.5619 25.3527 48.7344 25.7205C47.907 26.0883 47.1714 26.4101 46.5278 26.7778C45.8842 27.1456 45.3325 27.4674 44.8728 27.7432V31.0532C45.9761 30.2717 46.9875 29.6281 47.9529 29.0764C48.9183 28.5248 49.8837 28.111 50.8951 27.8352C51.9065 27.5593 53.0098 27.4214 54.2051 27.4214C55.86 27.4214 57.1932 27.6973 58.2046 28.203C59.17 28.7086 59.9056 29.4442 60.3193 30.3176C60.733 31.2371 60.9169 32.2485 60.9169 33.4437V37.3053C60.2273 37.3053 59.2619 37.3973 58.1586 37.4892C57.0553 37.6271 55.8141 37.811 54.4809 38.0869C53.1477 38.3627 51.8145 38.7305 50.4814 39.2361C49.1482 39.7418 47.9529 40.3854 46.8496 41.2129C45.7463 42.0404 44.8728 43.0058 44.1832 44.2011C43.4937 45.3963 43.1719 46.8215 43.1719 48.4764C43.1719 49.5798 43.4017 50.5911 43.8155 51.5106C44.2752 52.43 44.8269 53.2575 45.6084 53.9471C46.3439 54.6366 47.2174 55.1883 48.2288 55.5561C49.1942 55.9238 50.2515 56.1077 51.4008 56.1537C52.5961 56.1537 53.6534 56.0158 54.6188 55.74C55.6302 55.4641 56.5036 55.1423 57.3311 54.7286C58.1127 54.3148 58.8482 53.9011 59.4458 53.4874C60.0435 53.0736 60.5492 52.7058 60.9169 52.384C60.9629 53.1655 61.0548 53.8092 61.1468 54.4068C61.2387 54.9584 61.4686 55.4182 61.7444 55.694C62.0202 56.0158 62.48 56.1537 63.1236 56.1537C63.8131 56.1537 64.6406 55.8779 65.606 55.3262C66.5714 54.7746 67.8127 53.993 69.1918 52.9817V50.2693V50.0854ZM60.871 49.3039C60.4112 49.7177 59.9056 50.1314 59.3539 50.6371C58.7563 51.0968 58.1127 51.5106 57.4231 51.9243C56.7335 52.3381 55.952 52.6599 55.1245 52.9357C54.297 53.2115 53.3776 53.3035 52.4122 53.3035C51.8145 53.3035 51.1709 53.2115 50.4814 53.0276C49.7918 52.8437 49.1482 52.5679 48.5046 52.1542C47.907 51.7404 47.4013 51.2347 46.9875 50.5911C46.5738 49.9475 46.3899 49.166 46.3899 48.2926C46.3899 47.3731 46.5738 46.5456 46.9415 45.8101C47.3093 45.0745 47.769 44.385 48.3667 43.7873C48.9643 43.1897 49.6079 42.638 50.3434 42.2243C51.079 41.7646 51.8145 41.3968 52.5961 41.075C53.5615 40.7072 54.5728 40.4314 55.5842 40.2475C56.6416 40.0636 57.607 39.9717 58.5264 39.8797C59.4458 39.8338 60.2733 39.7878 60.9169 39.7878V49.3039H60.871Z" fill="#0668B2"/>
<path d="M94.6614 27.9271C94.2476 27.5593 93.8339 27.1916 93.3282 26.8238C92.8225 26.41 92.2709 26.0423 91.6732 25.6285C91.0756 25.2607 90.432 24.9389 89.7884 24.7091C89.1448 24.4792 88.4552 24.3413 87.7197 24.3413C86.7083 24.3413 85.6969 24.5712 84.7775 25.0309C83.8121 25.4906 82.9386 26.0882 82.1111 26.7778C81.2836 27.4674 80.5021 28.2489 79.8125 29.0304C79.123 29.8119 78.5253 30.5475 78.0196 31.2371C77.5599 31.9266 77.1462 32.4783 76.9163 32.892V24.893H73.6523V55.2802H76.9163V36.202C77.5599 35.0987 78.2955 34.0413 79.077 33.0299C79.8585 32.0186 80.64 31.0991 81.5135 30.2717C82.387 29.4442 83.2144 28.8006 84.0879 28.3408C84.9614 27.8811 85.8348 27.6053 86.7543 27.6053C87.4898 27.6053 88.2253 27.7892 88.9609 28.157C89.6964 28.5247 90.386 28.9385 91.0296 29.4442C91.6732 29.9498 92.2709 30.4555 92.7765 30.9153L94.6614 27.8811V27.9271Z" fill="#0668B2"/>
<path d="M122.797 38.9604C122.797 37.903 122.705 36.7997 122.521 35.6964C122.383 34.5931 122.015 33.4438 121.509 32.2485C121.142 31.3291 120.59 30.4096 119.9 29.4902C119.211 28.5708 118.383 27.6973 117.372 26.9158C116.361 26.1343 115.211 25.5366 113.878 25.031C112.545 24.5712 111.028 24.3414 109.327 24.2954C107.12 24.2954 105.189 24.7092 103.443 25.5826C101.742 26.4101 100.271 27.5594 99.0753 28.9845C97.88 30.4556 96.9606 32.0646 96.317 33.9035C95.6734 35.7423 95.3516 37.6732 95.3516 39.6959C95.3516 41.7187 95.5354 42.9139 95.9952 44.477C96.4089 46.04 97.0065 47.5111 97.834 48.8902C98.6615 50.2694 99.6729 51.4646 100.868 52.522C102.109 53.5793 103.489 54.4068 105.098 54.9585C106.707 55.5561 108.499 55.832 110.476 55.8779C112.177 55.8779 113.694 55.694 115.119 55.3263C116.544 54.9585 117.832 54.4528 118.981 53.8552C120.13 53.2575 121.234 52.568 122.153 51.8324V48.2007C121.693 48.6144 121.096 49.0741 120.452 49.5798C119.762 50.0855 118.935 50.6372 118.016 51.0969C117.05 51.6026 115.993 52.0163 114.798 52.3381C113.602 52.6599 112.269 52.8438 110.844 52.8438C109.649 52.8438 108.499 52.6599 107.35 52.3381C106.201 51.9703 105.098 51.4646 104.04 50.7291C103.029 49.9936 102.109 49.1201 101.282 48.0168C100.5 46.9135 99.9028 45.6263 99.489 44.1092C99.0753 42.5921 98.8914 40.8912 98.9374 38.9604H122.751H122.797ZM99.3051 36.386C99.5809 34.8229 100.087 33.4438 100.776 32.2945C101.466 31.1452 102.293 30.1798 103.213 29.4442C104.132 28.7087 105.144 28.157 106.201 27.7893C107.258 27.4215 108.27 27.2376 109.327 27.2376C111.028 27.2376 112.545 27.6513 113.924 28.3869C115.257 29.1684 116.361 30.1798 117.142 31.467C117.74 32.4324 118.153 33.3059 118.383 34.0874C118.659 34.9149 118.843 35.6504 118.935 36.34H99.3051V36.386Z" fill="#0668B2"/>
<path d="M122.796 16.5261H95.3965V19.6522H122.796V16.5261Z" fill="#0668B2"/>
<path d="M252.757 11.1935C252.757 12.8025 251.47 14.0897 249.815 14.0897C248.16 14.0897 246.873 12.8025 246.873 11.1935C246.873 9.5845 248.16 8.34326 249.861 8.34326C251.562 8.34326 252.757 9.5845 252.757 11.1935ZM247.609 11.1935C247.609 12.4807 248.574 13.4921 249.861 13.4921C251.102 13.4921 252.022 12.4807 252.022 11.2395C252.022 9.99824 251.056 8.94089 249.815 8.94089C248.574 8.94089 247.609 9.95227 247.609 11.2395V11.1935ZM249.355 12.7106H248.712V9.86033C248.988 9.86033 249.355 9.76838 249.815 9.76838C250.275 9.76838 250.597 9.86033 250.781 9.99824C250.965 10.1362 251.056 10.32 251.056 10.5959C251.056 10.8717 250.781 11.1935 250.459 11.2854C250.735 11.4234 250.873 11.6532 250.965 12.021C251.056 12.4347 251.102 12.6186 251.194 12.7106H250.505C250.413 12.6186 250.367 12.3428 250.275 12.021C250.229 11.7452 250.045 11.6072 249.677 11.6072H249.355V12.7565V12.7106ZM249.401 11.1016H249.723C250.091 11.1016 250.367 10.9636 250.367 10.6878C250.367 10.412 250.183 10.2741 249.769 10.2741C249.356 10.2741 249.493 10.2741 249.401 10.2741V11.1016Z" fill="#0668B2"/>
</svg>
