<svg width="155" height="90" viewBox="0 0 155 90" fill="none" xmlns="http://www.w3.org/2000/svg">
<g clip-path="url(#clip0_172_505)">
<path d="M0 89.9895H154.991V0.0182571H0V89.9895Z" fill="white"/>
<path d="M25.2344 71.6441H26.478V74.9369H30.1625V71.6441H31.4062V79.3975H30.1625V76.0036H26.478V79.3975H25.2344V71.6441Z" fill="#00ADEE"/>
<mask id="mask0_172_505" style="mask-type:luminance" maskUnits="userSpaceOnUse" x="0" y="0" width="155" height="90">
<path d="M0 7.62939e-06H155V90H0V7.62939e-06Z" fill="white"/>
</mask>
<g mask="url(#mask0_172_505)">
<path d="M38.2392 75.6975C38.1557 74.7226 37.4874 74.1012 36.4109 74.1012C35.3807 74.1012 34.6661 74.6392 34.5268 75.6975H38.2392ZM33.2832 76.3282C33.2832 74.4444 34.5454 73.1467 36.383 73.1467C38.332 73.1467 39.5107 74.5844 39.3622 76.6343H34.4897C34.5361 77.8216 35.2693 78.4987 36.4573 78.4987C37.3111 78.4987 37.868 78.2112 38.1742 77.6166L39.2787 77.7845C38.7868 78.9161 37.8216 79.5004 36.4387 79.5004C34.5268 79.5088 33.2832 78.2483 33.2832 76.3282Z" fill="#00ADEE"/>
<path d="M46.0351 76.328C46.0351 74.9923 45.2555 74.1668 44.114 74.1668C42.991 74.1668 42.2207 74.983 42.2207 76.328C42.2207 77.6915 42.991 78.4984 44.1418 78.4984C45.2648 78.5077 46.0351 77.6822 46.0351 76.328ZM41.0234 76.328C41.0234 74.2132 42.3135 73.1465 43.8355 73.1465C44.8008 73.1465 45.6546 73.6195 46.0073 74.4636V73.2671H47.2045V79.3796H46.0073V78.2202C45.6639 79.0457 44.8008 79.528 43.8448 79.528C42.3228 79.5373 41.0234 78.4521 41.0234 76.328Z" fill="#00ADEE"/>
<path d="M49.5059 71.2729H50.7217V79.3889H49.5059V71.2729Z" fill="#00ADEE"/>
<path d="M53.2835 76.9495V74.2039H52.3926V73.2764H53.2835V72.1541L54.4901 71.8943V73.2764H56.2998V74.2039H54.4901V76.8196C54.4901 78.0811 54.8242 78.5263 55.7523 78.5263C55.8729 78.5263 56.0121 78.5078 56.2441 78.4707L56.4019 79.3982C56.1699 79.4539 55.8265 79.4817 55.5666 79.4817C54.0075 79.4817 53.2835 78.8241 53.2835 76.9495Z" fill="#00ADEE"/>
<path d="M58.1094 71.2726H59.3066V74.3808C59.5572 73.6657 60.2161 73.1555 61.3113 73.1555C62.9262 73.1555 63.7893 74.0367 63.7893 76.068V79.3887H62.592V76.1617C62.592 74.788 62.0816 74.1944 60.94 74.1944C59.8171 74.1944 59.3066 74.9272 59.3066 76.2999V79.3887H58.1094V71.2726Z" fill="#00ADEE"/>
<path d="M69.8203 71.6438H71.0639V79.3972H69.8203V71.6438Z" fill="#00ADEE"/>
<path d="M73.4414 73.2673H74.6386V74.3804C74.9171 73.6198 75.6131 73.156 76.6433 73.156C78.3324 73.156 79.1213 74.13 79.1213 76.0685V79.3892H77.9241V76.1613C77.9241 74.8256 77.4136 74.1949 76.2721 74.1949C75.112 74.1949 74.6386 74.9546 74.6386 76.3004V79.3892H73.4414V73.2673Z" fill="#00ADEE"/>
<path d="M80.8379 77.9141L81.934 77.6173C82.23 78.1739 82.8621 78.4707 83.7242 78.4707C84.6811 78.4707 85.1906 78.1739 85.1906 77.6173C85.1906 76.2167 81.107 77.4875 81.107 74.9182C81.107 73.87 82.2207 73.1651 83.6416 73.1651C84.7554 73.1651 85.8783 73.7216 86.2486 74.5657L85.1823 74.8532C84.9215 74.3987 84.3284 74.1483 83.6695 74.1483C82.8156 74.1483 82.295 74.4358 82.295 74.9367C82.295 76.328 86.4064 75.048 86.4064 77.5802C86.4064 78.7582 85.3679 79.5002 83.7242 79.5002C82.3414 79.5002 81.2184 78.8788 80.8379 77.9141Z" fill="#00ADEE"/>
<path d="M88.1406 76.597V73.2671H89.3379V76.5043C89.3379 77.8307 89.8214 78.4614 90.9815 78.4614C92.1416 78.4614 92.614 77.6999 92.614 76.3457V73.2578H93.8112V79.3889H92.614V78.2759C92.3449 79.0365 91.6404 79.5095 90.6186 79.5095C88.9304 79.5095 88.1406 78.5263 88.1406 76.597Z" fill="#00ADEE"/>
<path d="M96.1133 73.2673H97.3105V74.296C97.5425 73.6476 98.1922 73.0447 99.4637 73.2302L99.3347 74.3897C97.9602 74.13 97.3105 74.8711 97.3105 76.3746V79.4077H96.1133V73.2673Z" fill="#00ADEE"/>
<path d="M105.384 76.328C105.384 74.9923 104.605 74.1668 103.464 74.1668C102.34 74.1668 101.571 74.983 101.571 76.328C101.571 77.6915 102.34 78.4984 103.491 78.4984C104.614 78.5077 105.384 77.6822 105.384 76.328ZM100.363 76.328C100.363 74.2132 101.653 73.1465 103.175 73.1465C104.141 73.1465 104.994 73.6195 105.347 74.4636V73.2671H106.544V79.3796H105.347V78.2202C105.004 79.0457 104.141 79.528 103.185 79.528C101.663 79.5373 100.363 78.4521 100.363 76.328Z" fill="#00ADEE"/>
<path d="M108.855 73.2673H110.053V74.3804C110.331 73.6198 111.027 73.156 112.057 73.156C113.746 73.156 114.535 74.13 114.535 76.0685V79.3892H113.338V76.1613C113.338 74.8256 112.828 74.1949 111.686 74.1949C110.526 74.1949 110.053 74.9546 110.053 76.3004V79.3892H108.855V73.2673Z" fill="#00ADEE"/>
<path d="M116.271 76.328C116.271 74.4729 117.533 73.1465 119.306 73.1465C120.847 73.1465 121.775 73.8514 122.156 75.2428L121.124 75.4468C120.828 74.5749 120.253 74.1575 119.352 74.1575C118.239 74.1575 117.469 75.0387 117.469 76.3187C117.469 77.5894 118.239 78.4706 119.352 78.4706C120.188 78.4706 120.828 77.9976 121.098 77.1999L122.128 77.4039C121.794 78.7211 120.763 79.5002 119.297 79.5002C117.533 79.5095 116.271 78.1831 116.271 76.328Z" fill="#00ADEE"/>
<path d="M128.569 75.6975C128.486 74.7226 127.817 74.1012 126.74 74.1012C125.711 74.1012 124.995 74.6392 124.857 75.6975H128.569ZM123.613 76.3282C123.613 74.4444 124.875 73.1467 126.713 73.1467C128.662 73.1467 129.841 74.5844 129.692 76.6343H124.82C124.866 77.8216 125.599 78.4987 126.787 78.4987C127.641 78.4987 128.198 78.2112 128.504 77.6166L129.609 77.7845C129.117 78.9161 128.152 79.5004 126.769 79.5004C124.857 79.5088 123.613 78.2483 123.613 76.3282Z" fill="#00ADEE"/>
<path d="M92.6992 10.4722H145.062V62.8044H92.6992V10.4722Z" fill="#00ADEE"/>
<path d="M141.738 26.4722C141.182 26.4722 140.403 26.4444 139.947 26.2867C139.4 26.1012 138.927 25.7302 138.416 25.3406C138.157 25.1458 137.896 24.9417 137.619 24.7562C137.274 24.5243 136.987 24.4223 136.708 24.4223C136.338 24.4223 135.984 24.6171 135.539 25.0716C134.946 25.6838 134.007 27.0565 133.628 27.6224C133.608 27.6595 133.571 27.6966 133.525 27.6966C133.432 27.6966 133.432 27.576 133.432 27.5389C133.413 25.962 133.164 17.3358 132.996 14.7665C132.922 13.6257 132.56 12.9207 132.068 12.9207C131.669 12.9207 131.085 13.4494 130.713 14.9335C129.767 18.7086 127.753 27.1215 126.889 31.3882C126.862 31.5088 126.731 31.5088 126.703 31.3882C126.611 30.9523 126.519 30.4606 126.435 30.0433C126.174 28.7261 125.961 27.5945 125.507 26.9638C125.006 26.2496 124.253 26.2125 123.362 26.8061C123.158 26.9452 122.964 27.1029 122.76 27.2792C122.174 27.78 121.526 28.3458 120.43 28.3458H109.776L109.515 29.7557H120.718C121.868 29.7557 122.926 29.0972 123.566 28.6427C123.892 28.4108 124.105 28.2716 124.29 28.2716C124.542 28.2716 124.652 28.5221 124.737 28.8931C124.782 29.0786 124.838 29.3383 124.903 29.6259C125.116 30.5998 125.433 32.1395 125.84 33.1598C126.026 33.6329 126.314 33.8926 126.63 33.8926C127.121 33.8926 127.613 33.3175 127.901 32.4178C128.281 31.2212 130.537 21.4078 131.492 17.2987C131.54 17.1318 131.549 17.0298 131.557 17.0298C131.567 16.9555 131.613 16.9092 131.678 16.9092C131.724 16.9092 131.781 16.9463 131.789 17.039V17.0576C131.855 21.2223 132.058 28.5221 132.374 29.2734C132.541 29.6815 132.801 29.9041 133.135 29.9041C133.517 29.9041 133.961 29.6073 134.295 29.1343C134.453 28.8931 134.657 28.587 134.88 28.2624C135.418 27.4554 136.032 26.5464 136.207 26.3516C136.485 26.0641 136.792 26.0641 137.229 26.3702C137.293 26.4165 137.367 26.4722 137.461 26.5371C137.933 26.871 138.722 27.3441 139.604 27.5853C140.189 27.7522 140.941 27.78 141.469 27.78C141.813 27.78 142.176 27.7708 142.277 27.7615L142.528 26.4536C142.408 26.4629 142.064 26.4722 141.738 26.4722ZM113.339 18.8385C115.371 18.9498 114.74 23.1887 112.587 23.0681C110.369 22.9382 111.093 18.7179 113.339 18.8385ZM110.146 26.3052L110.768 22.9661C111.01 23.4484 111.687 24.0513 112.773 24.0513C114.731 24.0513 115.938 22.5208 116.058 20.7399C116.189 18.8385 115.075 17.744 113.775 17.744C112.652 17.744 111.891 18.2912 111.501 18.857L111.52 18.7735C111.641 18.1892 111.149 17.8645 110.722 17.8645H110.304C110.304 17.8645 109.163 24.3852 109.005 25.1643C108.819 26.0919 109.571 26.3052 109.803 26.3052H110.146ZM107.975 17.8738H107.585C107.585 17.8738 107.009 21.1944 106.935 21.5747C106.797 22.391 106.407 22.9475 105.302 22.9475C104.672 22.9475 104.067 22.5672 104.207 21.7231C104.262 21.3985 104.68 18.9776 104.717 18.7828C104.828 18.1243 104.272 17.8738 103.818 17.8738H103.465C103.381 18.384 102.991 20.5081 102.852 21.3429C102.796 21.6768 102.778 22.02 102.796 22.2426C102.935 23.3649 103.919 24.0606 105.153 24.0606C107.269 24.0606 108.068 22.9475 108.327 21.6397C108.402 21.2037 108.811 19.0147 108.838 18.7921C108.912 18.1243 108.374 17.8738 107.975 17.8738ZM99.5206 19.0147C99.335 19.0796 99.0742 19.0982 98.6195 19.0982H97.5986L98.0812 16.3897H99.4093C101.023 16.3897 100.893 18.5695 99.5206 19.0147ZM98.9452 22.8826C98.7772 22.9197 98.4988 22.9475 97.9234 22.9475H96.9313L97.4324 20.1092H98.9081C100.856 20.1092 100.681 22.4466 98.9452 22.8826ZM102.156 17.4564C102.156 16.0837 101.274 15.4529 99.7239 15.4529H96.7364L95.2227 23.9214H97.9605C98.5823 23.9214 99.1772 23.9029 99.5206 23.8287C101.051 23.504 101.673 22.391 101.804 21.5655C101.97 20.4339 101.255 19.6825 100.449 19.497C101.06 19.3764 102.156 18.7364 102.156 17.4564ZM120.328 18.7272C122.527 18.857 121.812 23.0681 119.566 22.9475C117.544 22.8362 118.174 18.6066 120.328 18.7272ZM119.186 24.0513C120.374 24.0513 121.024 23.5226 121.404 22.9197L121.385 23.0124C121.274 23.5782 121.738 23.9214 122.185 23.9214H122.564L123.631 17.8645H122.314L122.137 18.7921C121.905 18.3098 121.228 17.744 120.142 17.744C118.23 17.744 117.088 19.3208 116.903 20.9997C116.671 22.929 117.914 24.0513 119.186 24.0513Z" fill="white"/>
<path d="M35.881 42.2593C35.1756 42.2593 34.4981 42.1202 33.8485 41.8698V62.8045H37.9135V41.8698C37.2731 42.1202 36.5863 42.2593 35.881 42.2593ZM57.9231 43.4559L51.8348 58.343L45.0969 41.8698H40.6328L49.7745 62.8045H53.9045L63.1111 41.8698H60.2804C59.2502 41.8698 58.3129 42.4912 57.9231 43.4559ZM74.0997 59.7622C70.1831 59.7622 67.5474 56.9795 67.5474 52.3325C67.5474 47.7226 70.1831 44.94 74.0254 44.94C77.9048 44.94 80.5777 47.7597 80.5777 52.3325C80.5777 56.9517 77.9419 59.7622 74.0997 59.7622ZM80.4756 41.8698V45.9695C79.2691 43.0756 76.3363 41.4709 73.0416 41.4709C67.8443 41.4709 63.4452 45.1255 63.4452 52.3418C63.4452 59.5859 67.8722 63.2869 73.0788 63.2869C76.3363 63.2869 79.3062 61.6358 80.4756 58.8254V60.7361C80.4756 61.8584 81.3851 62.7767 82.5174 62.7767H84.5778V41.8698H80.4756ZM20.8831 41.508C17.3656 41.508 14.9897 43.0849 14.0338 45.682V41.8791H11.9734C10.8504 41.8791 9.93164 42.788 9.93164 43.9197V62.8138H14.0338V52.2676C14.0338 47.6577 15.6487 45.0605 19.6023 45.0605C23.4817 45.0605 25.2451 47.2217 25.2451 51.7945V62.8138H29.3472V51.4606C29.3472 44.8379 26.6744 41.508 20.8831 41.508Z" fill="#00ADEE"/>
<path d="M35.8819 33.9112C34.5176 33.9112 33.4131 32.8167 33.4131 31.4625C33.4131 30.1082 34.5176 29.0137 35.8819 29.0137C37.2461 29.0137 38.3506 30.1082 38.3506 31.4625C38.3506 32.8167 37.2461 33.9112 35.8819 33.9112ZM35.8819 26.3331C33.0233 26.3331 30.7031 28.6334 30.7031 31.4625C30.7031 34.2915 33.0233 36.5918 35.8819 36.5918C38.7404 36.5918 41.0606 34.2915 41.0606 31.4625C41.0606 28.6334 38.7404 26.3331 35.8819 26.3331Z" fill="#FBAE17"/>
</g>
</g>
<defs>
<clipPath id="clip0_172_505">
<rect width="155" height="90" fill="white"/>
</clipPath>
</defs>
</svg>
